<?xml version="1.0" encoding="utf-8"?>

<!-- License Agreement at http://iconmonstr.com/license/ -->

<!DOCTYPE svg PUBLIC "-//W3C//DTD SVG 1.1//EN" "http://www.w3.org/Graphics/SVG/1.1/DTD/svg11.dtd">
<svg version="1.1" xmlns="http://www.w3.org/2000/svg" xmlns:xlink="http://www.w3.org/1999/xlink" x="0px" y="0px"
	 width="512px" height="512px" viewBox="0 0 512 512" style="enable-background:new 0 0 512 512;" xml:space="preserve">
<path id="disc-icon" d="M290.333,256c0,18.936-15.397,34.333-34.333,34.333S221.667,274.936,221.667,256s15.398-34.333,34.333-34.333
	S290.333,237.064,290.333,256z M462,256c0,113.771-92.229,206-206,206S50,369.771,50,256c0-113.771,92.229-206,206-206
	S462,142.229,462,256z M196.947,340.316c-9.815-6.891-18.365-15.44-25.255-25.256l-63.361,28.173
	c14.745,24.895,35.549,45.699,60.452,60.443L196.947,340.316z M324.666,256c0-37.921-30.745-68.667-68.666-68.667
	S187.333,218.079,187.333,256s30.746,68.667,68.667,68.667S324.666,293.921,324.666,256z M403.677,168.792
	c-14.744-24.912-35.549-45.716-60.46-60.469l-28.164,63.369c9.814,6.89,18.365,15.439,25.264,25.255L403.677,168.792z"/>
</svg>
